<svg width="171" height="36" viewBox="0 0 171 36" fill="none" xmlns="http://www.w3.org/2000/svg">
<path fill-rule="evenodd" clip-rule="evenodd" d="M0 35.9994H12.8967C13.1412 26.8852 17.9712 20.917 25.5443 19.003C10.353 17.8295 2.13707 29.5206 0 35.9994Z" fill="#4EFDEA"/>
<path fill-rule="evenodd" clip-rule="evenodd" d="M25.6476 31.1909C22.2616 26.4015 25.5538 20.9409 26.5747 20.0234C18.919 22.7188 17.8824 33.2626 18.5072 35.9541L32.6813 36.0002C29.2031 34.7098 27.039 33.078 25.7593 31.3493C25.6476 31.1909 25.6476 31.1909 25.6476 31.1909Z" fill="#006BF1"/>
<path fill-rule="evenodd" clip-rule="evenodd" d="M12.1394 0V10.3777C19.5025 12.9861 40.09 20.4039 26.8836 31.1907L26.9953 31.3491C31.1247 29.7019 33.8026 27.4795 35.0358 25.1832C40.0045 15.9291 24.7765 6.06434 12.1394 0Z" fill="#7782F1"/>
<path d="M47.25 26.8065V9.87097H55.0028C56.6813 9.87097 58.0773 10.4274 59.1908 11.5403C60.3042 12.6371 60.861 13.9516 60.861 15.4839C60.861 16.6613 60.512 17.7097 59.814 18.629C59.116 19.5484 58.2102 20.1694 57.0968 20.4919L61.0853 26.8065H57.7449L53.9308 20.8548H50.1916V26.8065H47.25ZM54.8781 18.3387C55.7589 18.3387 56.4985 18.0645 57.0968 17.5161C57.695 16.9516 57.9942 16.2419 57.9942 15.3871C57.9942 14.5645 57.72 13.871 57.1715 13.3065C56.6231 12.7419 55.9002 12.4597 55.0028 12.4597H50.1916V18.3387H54.8781Z" fill="white"/>
<path d="M64.3747 15.7016C65.7042 14.4113 67.2997 13.7661 69.161 13.7661C70.8229 13.7661 72.2687 14.2903 73.4985 15.3387C74.745 16.371 75.5094 17.6694 75.792 19.2339C75.8917 19.621 75.9415 20.0081 75.9415 20.3952C75.9415 20.7339 75.9 21.0726 75.8169 21.4113H65.1974C65.3635 22.3629 65.8123 23.121 66.5435 23.6855C67.2913 24.25 68.1638 24.5323 69.161 24.5323C70.6899 24.5323 71.9114 24 72.8255 22.9355L75.3682 23.5887C74.8364 24.621 73.9805 25.4516 72.8005 26.0806C71.6372 26.6935 70.424 27 69.161 27C67.2498 27 65.6378 26.3548 64.3249 25.0645C63.0286 23.7742 62.3804 22.2177 62.3804 20.3952C62.3804 18.5565 63.0452 16.9919 64.3747 15.7016ZM65.1974 19.2823H73.0249C72.8587 18.4274 72.4183 17.7097 71.7037 17.129C71.0057 16.5323 70.1498 16.2339 69.1361 16.2339C68.1223 16.2339 67.2581 16.5323 66.5435 17.129C65.8289 17.7097 65.3802 18.4274 65.1974 19.2823Z" fill="white"/>
<path d="M78.239 9.87097H81.1058V15.7258C82.1861 14.4355 83.607 13.7823 85.3686 13.7661C85.3852 13.7661 85.4101 13.7661 85.4434 13.7661C87.2549 13.7661 88.7921 14.4113 90.0552 15.7016C91.3182 16.9758 91.9497 18.5403 91.9497 20.3952C91.9497 22.2339 91.3265 23.7984 90.0801 25.0887C88.8337 26.3629 87.2632 27 85.3686 27C83.607 27 82.1861 26.371 81.1058 25.1129V26.8065H78.239V9.87097ZM82.1778 23.2742C82.9921 24.0806 83.9726 24.4839 85.1193 24.4839C86.266 24.4839 87.2382 24.0806 88.036 23.2742C88.8503 22.4677 89.2574 21.5081 89.2574 20.3952C89.2574 19.2823 88.8503 18.3226 88.036 17.5161C87.2382 16.6935 86.266 16.2823 85.1193 16.2823C83.9726 16.2823 82.9838 16.6935 82.1528 17.5161C81.3385 18.3226 80.9313 19.2823 80.9313 20.3952C80.9313 21.5081 81.3468 22.4677 82.1778 23.2742Z" fill="white"/>
<path d="M97.1267 13.9839V26.8065H94.2599V13.9839H97.1267ZM94.4095 9.50807C94.7751 9.16935 95.2155 9 95.7307 9C96.2459 9 96.678 9.16935 97.027 9.50807C97.3926 9.83065 97.5754 10.2419 97.5754 10.7419C97.5754 11.2419 97.4009 11.6532 97.0519 11.9758C96.6863 12.3145 96.2459 12.4839 95.7307 12.4839C95.2155 12.4839 94.7751 12.3226 94.4095 12C94.0438 11.6613 93.861 11.2419 93.861 10.7419C93.861 10.2581 94.0438 9.84678 94.4095 9.50807Z" fill="white"/>
<path d="M100.002 26.8065V9.87097H102.869V26.8065H100.002Z" fill="white"/>
<path d="M114.38 13.9839V26.8065H111.514V13.9839H114.38ZM111.663 9.50807C112.029 9.16935 112.469 9 112.984 9C113.5 9 113.932 9.16935 114.281 9.50807C114.646 9.83065 114.829 10.2419 114.829 10.7419C114.829 11.2419 114.655 11.6532 114.306 11.9758C113.94 12.3145 113.5 12.4839 112.984 12.4839C112.469 12.4839 112.029 12.3226 111.663 12C111.298 11.6613 111.115 11.2419 111.115 10.7419C111.115 10.2581 111.298 9.84678 111.663 9.50807Z" fill="white"/>
<path d="M118.752 15.7016C120.081 14.4113 121.685 13.7661 123.563 13.7661C125.441 13.7661 127.036 14.4194 128.349 15.7258C129.679 17.0161 130.343 18.5645 130.343 20.371C130.343 22.1935 129.679 23.7581 128.349 25.0645C127.02 26.3548 125.424 27 123.563 27C121.685 27 120.081 26.3548 118.752 25.0645C117.422 23.7581 116.757 22.1935 116.757 20.371C116.757 18.5484 117.422 16.9919 118.752 15.7016ZM119.45 20.371C119.45 21.4839 119.848 22.4435 120.646 23.25C121.444 24.0565 122.416 24.4597 123.563 24.4597C124.693 24.4597 125.657 24.0565 126.455 23.25C127.252 22.4435 127.651 21.4839 127.651 20.371C127.651 19.2581 127.252 18.3065 126.455 17.5161C125.673 16.7097 124.71 16.3065 123.563 16.3065C122.416 16.3065 121.444 16.7097 120.646 17.5161C119.848 18.3065 119.45 19.2581 119.45 20.371Z" fill="white"/>
<path d="M132.299 13.9839H135.166V15.6774C136.18 14.4032 137.551 13.7661 139.279 13.7661C140.792 13.7661 142.088 14.2419 143.168 15.1935C144.265 16.129 144.814 17.379 144.814 18.9435V26.8065H141.947V19.6935C141.947 18.6774 141.631 17.871 141 17.2742C140.385 16.6613 139.62 16.3548 138.706 16.3548C137.659 16.3548 136.803 16.7258 136.138 17.4677C135.49 18.1935 135.166 19.1048 135.166 20.2016V26.8065H132.299V13.9839Z" fill="white"/>
<path d="M146.771 25.1613C146.771 24.6452 146.954 24.2097 147.32 23.8548C147.702 23.4839 148.159 23.2984 148.691 23.2984C149.223 23.2984 149.671 23.4839 150.037 23.8548C150.403 24.2097 150.586 24.6452 150.586 25.1613C150.586 25.6774 150.403 26.1129 150.037 26.4677C149.671 26.8226 149.223 27 148.691 27C148.159 27 147.702 26.8226 147.32 26.4677C146.954 26.1129 146.771 25.6774 146.771 25.1613Z" fill="white"/>
<path d="M154.795 13.9839V26.8065H153.05V13.9839H154.795ZM153 9.65323C153.249 9.42742 153.556 9.31452 153.922 9.31452C154.304 9.31452 154.62 9.43548 154.869 9.67742C155.119 9.90323 155.243 10.1935 155.243 10.5484C155.243 10.9032 155.119 11.2016 154.869 11.4435C154.62 11.6694 154.304 11.7823 153.922 11.7823C153.556 11.7823 153.249 11.6694 153 11.4435C152.75 11.2016 152.626 10.9032 152.626 10.5484C152.626 10.1935 152.75 9.89516 153 9.65323Z" fill="white"/>
<path d="M159.433 15.7016C160.746 14.4113 162.342 13.7661 164.219 13.7661C166.114 13.7661 167.718 14.4194 169.031 15.7258C170.344 17.0161 171 18.5645 171 20.371C171 22.1935 170.344 23.75 169.031 25.0403C167.701 26.3468 166.097 27 164.219 27C162.342 27 160.746 26.3548 159.433 25.0645C158.12 23.7742 157.464 22.2097 157.464 20.371C157.464 18.5484 158.12 16.9919 159.433 15.7016ZM160.63 23.9516C161.61 24.9355 162.807 25.4274 164.219 25.4274C165.649 25.4274 166.854 24.9355 167.834 23.9516C168.831 22.9677 169.33 21.7742 169.33 20.371C169.33 18.9677 168.831 17.7823 167.834 16.8145C166.854 15.8306 165.649 15.3387 164.219 15.3387C162.79 15.3387 161.585 15.8306 160.605 16.8145C159.624 17.7823 159.134 18.9677 159.134 20.371C159.134 21.7903 159.633 22.9839 160.63 23.9516Z" fill="white"/>
<path d="M105.706 26.8046V9.86914H108.573V26.8046H105.706Z" fill="white"/>
</svg>
