<svg width="12" height="10" viewBox="0 0 12 10" fill="none" xmlns="http://www.w3.org/2000/svg">
<path d="M12.0001 5.00013C11.996 4.56171 11.8194 4.14255 11.5084 3.83347L7.93339 0.25014C7.77725 0.0949307 7.56604 0.0078125 7.34589 0.0078125C7.12573 0.0078125 6.91452 0.0949307 6.75839 0.25014C6.68028 0.327609 6.61829 0.419776 6.57598 0.521325C6.53367 0.622875 6.51189 0.731796 6.51189 0.841806C6.51189 0.951816 6.53367 1.06074 6.57598 1.16229C6.61829 1.26383 6.68028 1.356 6.75839 1.43347L9.50006 4.1668H1.16672C0.945709 4.1668 0.733747 4.2546 0.577467 4.41088C0.421187 4.56716 0.333389 4.77912 0.333389 5.00013C0.333389 5.22115 0.421187 5.43311 0.577467 5.58939C0.733747 5.74567 0.945709 5.83347 1.16672 5.83347H9.50006L6.75839 8.57513C6.60147 8.73095 6.51287 8.94271 6.51209 9.16385C6.51131 9.38499 6.59841 9.59738 6.75422 9.7543C6.91004 9.91122 7.12181 9.99981 7.34294 10.0006C7.56408 10.0014 7.77647 9.91428 7.93339 9.75846L11.5084 6.17513C11.8214 5.86401 11.9982 5.44145 12.0001 5.00013V5.00013Z" fill="white"/>
</svg>
