<svg width="60" height="60" viewBox="0 0 60 60" fill="none" xmlns="http://www.w3.org/2000/svg">
<path d="M57.2314 44.6255C56.8903 43.7283 56.2539 42.9739 55.4268 42.4867C54.5998 41.9994 53.6314 41.8083 52.6813 41.9449L39.9505 43.8303C40.0584 42.9074 39.8499 41.9752 39.3591 41.1862C38.8682 40.3972 38.1241 39.7982 37.2485 39.4872L26.7707 36.0545C24.9543 35.464 22.9969 35.469 21.1835 36.0686L13.6601 38.5764C13.4773 37.7413 13.0148 36.9935 12.3493 36.4569C11.6837 35.9203 10.8549 35.627 9.99995 35.6255H6.24995C5.25573 35.6266 4.30253 36.022 3.5995 36.7251C2.89648 37.4281 2.50104 38.3813 2.49995 39.3755V53.1255C2.50104 54.1197 2.89648 55.0729 3.5995 55.7759C4.30253 56.479 5.25573 56.8744 6.24995 56.8755H9.99995C10.819 56.8728 11.6146 56.6016 12.2648 56.1035C12.9151 55.6054 13.384 54.9078 13.5998 54.1177L18.9252 53.2304C19.5952 53.1176 20.2838 53.221 20.8911 53.5258L26.9605 56.561C28.0053 57.0866 29.1439 57.3999 30.3106 57.4829C31.4772 57.5658 32.6487 57.4168 33.7574 57.0444L54.6259 50.0875C55.1619 49.9089 55.6563 49.6241 56.0797 49.25C56.503 48.8759 56.8466 48.4203 57.0898 47.9104C57.3331 47.4005 57.471 46.8468 57.4953 46.2824C57.5196 45.718 57.4299 45.1545 57.2314 44.6255ZM11.25 53.1255C11.2496 53.4569 11.1177 53.7746 10.8834 54.0089C10.6491 54.2433 10.3314 54.3751 9.99995 54.3755H6.24995C5.91856 54.3751 5.60086 54.2433 5.36652 54.0089C5.13219 53.7746 5.00035 53.4569 4.99992 53.1255V39.3755C5.00035 39.0441 5.13219 38.7264 5.36652 38.4921C5.60086 38.2578 5.91856 38.1259 6.24995 38.1255H9.99995C10.3314 38.1259 10.6491 38.2578 10.8834 38.4921C11.1177 38.7264 11.2496 39.0441 11.25 39.3755V53.1255ZM54.8333 46.8333C54.7354 47.0404 54.5964 47.2254 54.4248 47.377C54.2531 47.5287 54.0523 47.6437 53.8348 47.7153L32.9669 54.6721C32.1696 54.9404 31.327 55.0477 30.4879 54.988C29.6488 54.9283 28.8299 54.7026 28.0786 54.3242L22.0092 51.289C20.9298 50.7466 19.7055 50.5627 18.5143 50.7642L13.75 51.558V41.1817L21.9744 38.4404C23.2781 38.0085 24.6858 38.0049 25.9917 38.4299L36.4318 41.8497C36.8114 41.9875 37.1253 42.2628 37.3114 42.6211C37.4976 42.9794 37.5423 43.3946 37.4368 43.7843C37.3314 44.1741 37.0833 44.51 36.7419 44.7255C36.4004 44.941 35.9905 45.0204 35.5932 44.9479L24.2017 42.8771C23.8767 42.8207 23.5426 42.895 23.2722 43.0839C23.0018 43.2728 22.817 43.5608 22.7581 43.8854C22.6991 44.2099 22.7708 44.5445 22.9576 44.8164C23.1443 45.0883 23.4309 45.2754 23.755 45.3369L35.1456 47.4078C35.7195 47.5127 36.3092 47.4934 36.875 47.3512C37.4408 47.209 37.9696 46.9473 38.4258 46.5836L53.0473 44.4178C53.4322 44.3616 53.8249 44.4387 54.1601 44.6361C54.4953 44.8336 54.753 45.1397 54.8905 45.5036C54.9718 45.7175 55.0086 45.9458 54.9988 46.1744C54.9889 46.4031 54.9326 46.6273 54.8333 46.8335V46.8333Z" fill="#000034"/>
<path d="M30.3131 20.9338C30.4748 20.9955 30.6226 21.051 30.7453 21.105C30.9241 21.1834 31.1298 21.2628 31.3508 21.3474C32.5777 21.8161 33.1252 22.1253 33.1252 22.7185C33.1252 22.9782 32.848 23.3813 32.3189 23.6493C31.9439 23.8388 30.5904 24.3579 28.8655 23.0902C28.5984 22.8938 28.2642 22.8116 27.9365 22.8617C27.6088 22.9117 27.3144 23.0899 27.1181 23.357C26.9217 23.6241 26.8395 23.9582 26.8895 24.2859C26.9396 24.6136 27.1177 24.9081 27.3848 25.1044C28.1611 25.6833 29.0531 26.088 30 26.2908V27.5002C30.0032 27.8296 30.1363 28.1445 30.3704 28.3763C30.6044 28.6081 30.9205 28.7381 31.25 28.7381C31.5794 28.7381 31.8955 28.6081 32.1296 28.3763C32.3637 28.1445 32.4968 27.8296 32.5 27.5002V26.2252C32.8265 26.1424 33.1439 26.0268 33.4472 25.8801C34.7906 25.2005 35.625 23.9885 35.625 22.7185C35.625 20.3044 33.4247 19.4635 32.2424 19.0118C32.0647 18.9437 31.8982 18.8809 31.7548 18.8178C31.5973 18.7482 31.4087 18.6759 31.2006 18.5969C30.017 18.1473 29.375 17.7921 29.375 17.2041C29.375 16.9444 29.6522 16.5413 30.1813 16.2733C30.5563 16.0838 31.9098 15.5646 33.6347 16.8324C33.9019 17.0262 34.235 17.1065 34.5612 17.0557C34.8874 17.0048 35.1802 16.827 35.3757 16.561C35.5713 16.295 35.6537 15.9625 35.6049 15.636C35.5561 15.3094 35.3801 15.0155 35.1153 14.8183C34.339 14.2394 33.4469 13.8348 32.5 13.632V12.5004C32.5016 12.3353 32.4704 12.1714 32.4083 12.0183C32.3462 11.8653 32.2544 11.7261 32.1382 11.6087C32.0219 11.4913 31.8836 11.3982 31.7311 11.3346C31.5787 11.271 31.4152 11.2383 31.25 11.2383C31.0848 11.2383 30.9213 11.271 30.7688 11.3346C30.6164 11.3982 30.478 11.4913 30.3618 11.6087C30.2456 11.7261 30.1538 11.8653 30.0917 12.0183C30.0296 12.1714 29.9984 12.3353 30 12.5004V13.6909C29.6732 13.7758 29.3558 13.8936 29.0528 14.0425C27.7093 14.7222 26.8751 15.9337 26.8751 17.2041C26.875 19.6282 29.1968 20.5102 30.3131 20.9338Z" fill="#000034"/>
<path d="M31.25 33.7499C33.9695 33.7499 36.6279 32.9435 38.8891 31.4326C41.1502 29.9217 42.9126 27.7742 43.9533 25.2618C44.9939 22.7493 45.2662 19.9846 44.7357 17.3174C44.2051 14.6502 42.8955 12.2002 40.9726 10.2772C39.0496 8.35428 36.5996 7.04474 33.9324 6.5142C31.2651 5.98366 28.5005 6.25597 25.988 7.29667C23.4755 8.33738 21.3281 10.0997 19.8172 12.3609C18.3064 14.6221 17.5 17.2805 17.5 20C17.5041 23.6454 18.9541 27.1404 21.5318 29.7181C24.1096 32.2959 27.6046 33.7458 31.25 33.7499ZM31.25 8.74997C33.4751 8.74997 35.6501 9.40977 37.5002 10.6459C39.3503 11.8821 40.7922 13.6391 41.6437 15.6948C42.4952 17.7504 42.718 20.0124 42.2839 22.1947C41.8498 24.377 40.7783 26.3816 39.205 27.9549C37.6316 29.5283 35.6271 30.5997 33.4448 31.0338C31.2625 31.4679 29.0005 31.2451 26.9448 30.3936C24.8892 29.5421 23.1322 28.1002 21.896 26.2501C20.6598 24.4001 20 22.225 20 20C20.0034 17.0173 21.1898 14.1578 23.2989 12.0488C25.4079 9.93974 28.2674 8.75338 31.25 8.74997Z" fill="#000034"/>
<path d="M50.3663 38.3842C50.4823 38.5003 50.6201 38.5924 50.7717 38.6553C50.9233 38.7181 51.0859 38.7504 51.25 38.7504C51.4142 38.7504 51.5767 38.7181 51.7283 38.6553C51.88 38.5924 52.0178 38.5003 52.1338 38.3842L55.8838 34.6342C56.1137 34.3989 56.2416 34.0825 56.2397 33.7535C56.2378 33.4245 56.1063 33.1095 55.8737 32.8768C55.641 32.6442 55.326 32.5127 54.997 32.5108C54.668 32.5089 54.3516 32.6368 54.1163 32.8667L52.5 34.4828V22.5004C52.5016 22.3353 52.4704 22.1714 52.4083 22.0183C52.3462 21.8653 52.2544 21.7261 52.1382 21.6087C52.022 21.4913 51.8836 21.3982 51.7312 21.3346C51.5787 21.271 51.4152 21.2383 51.25 21.2383C51.0848 21.2383 50.9213 21.271 50.7689 21.3346C50.6164 21.3982 50.4781 21.4913 50.3618 21.6087C50.2456 21.7261 50.1538 21.8653 50.0917 22.0183C50.0296 22.1714 49.9984 22.3353 50 22.5004V34.4828L48.3838 32.8666C48.2682 32.7483 48.1303 32.6542 47.9781 32.5896C47.8259 32.525 47.6624 32.4912 47.497 32.4903C47.3317 32.4893 47.1678 32.5212 47.0148 32.584C46.8619 32.6469 46.7229 32.7394 46.606 32.8563C46.4891 32.9733 46.3965 33.1122 46.3337 33.2652C46.2708 33.4181 46.239 33.582 46.2399 33.7474C46.2409 33.9127 46.2746 34.0763 46.3392 34.2285C46.4038 34.3807 46.498 34.5186 46.6163 34.6341L50.3663 38.3842Z" fill="#000034"/>
<path d="M48.75 12.4997C49.0815 12.4997 49.3995 12.368 49.6339 12.1336C49.8683 11.8991 50 11.5812 50 11.2497V3.74965C49.9968 3.42024 49.8637 3.10539 49.6297 2.87358C49.3956 2.64176 49.0795 2.51172 48.7501 2.51172C48.4206 2.51172 48.1045 2.64176 47.8704 2.87358C47.6364 3.10539 47.5033 3.42024 47.5001 3.74965V11.2497C47.5001 11.5812 47.6318 11.8991 47.8662 12.1335C48.1006 12.3679 48.4185 12.4997 48.75 12.4997Z" fill="#000034"/>
<path d="M53.75 17.5005C54.0816 17.5005 54.3995 17.3688 54.634 17.1343C54.8684 16.8999 55.0001 16.582 55.0001 16.2504V8.75042C55.0017 8.58526 54.9705 8.42141 54.9084 8.26835C54.8463 8.11529 54.7545 7.97606 54.6383 7.8587C54.522 7.74134 54.3837 7.64818 54.2313 7.5846C54.0788 7.52102 53.9153 7.48828 53.7501 7.48828C53.5849 7.48828 53.4214 7.52102 53.2689 7.5846C53.1165 7.64818 52.9782 7.74134 52.8619 7.8587C52.7457 7.97606 52.6539 8.11529 52.5918 8.26835C52.5297 8.42141 52.4985 8.58526 52.5001 8.75042V16.2504C52.5001 16.5819 52.6318 16.8999 52.8662 17.1343C53.1006 17.3687 53.4185 17.5004 53.75 17.5005Z" fill="#000034"/>
<path d="M12.5 15.0005C12.8316 15.0005 13.1495 14.8688 13.384 14.6343C13.6184 14.3999 13.7501 14.082 13.7501 13.7504V6.25042C13.7517 6.08526 13.7205 5.92141 13.6584 5.76835C13.5963 5.61529 13.5045 5.47606 13.3883 5.3587C13.272 5.24134 13.1337 5.14818 12.9813 5.0846C12.8288 5.02102 12.6653 4.98828 12.5001 4.98828C12.3349 4.98828 12.1714 5.02102 12.0189 5.0846C11.8665 5.14818 11.7282 5.24134 11.6119 5.3587C11.4957 5.47606 11.4039 5.61529 11.3418 5.76835C11.2797 5.92141 11.2485 6.08526 11.2501 6.25042V13.7504C11.2501 14.0819 11.3818 14.3999 11.6162 14.6343C11.8506 14.8687 12.1685 15.0004 12.5 15.0005Z" fill="#000034"/>
<path d="M7.5 22.4997C7.83153 22.4997 8.14948 22.368 8.38391 22.1336C8.61834 21.8991 8.75004 21.5812 8.75004 21.2497V13.7497C8.74685 13.4202 8.61375 13.1054 8.37968 12.8736C8.14561 12.6418 7.82949 12.5117 7.50006 12.5117C7.17062 12.5117 6.85451 12.6418 6.62044 12.8736C6.38636 13.1054 6.25327 13.4202 6.25008 13.7497V21.2497C6.25008 21.5812 6.38176 21.8991 6.61616 22.1335C6.85057 22.3679 7.16849 22.4997 7.5 22.4997Z" fill="#000034"/>
</svg>
