<svg width="18" height="18" viewBox="0 0 18 18" fill="none" xmlns="http://www.w3.org/2000/svg">
<path d="M15.51 0.875818L15.4943 0.870568L13.458 0.195568C12.7547 -0.0379395 11.998 -0.0585514 11.283 0.136318L7.101 1.35057C6.58894 1.48627 6.04554 1.43851 5.565 1.21557L5.19 1.04157C4.62044 0.804698 4.00125 0.711986 3.3873 0.771648C2.77334 0.83131 2.18358 1.0415 1.67029 1.3836C1.157 1.7257 0.736017 2.18913 0.444663 2.73283C0.153308 3.27654 0.000575464 3.88372 0 4.50056L0 13.5568C0.0015762 14.3678 0.265344 15.1565 0.751943 15.8053C1.23854 16.4541 1.92188 16.9282 2.7 17.1568L4.85175 17.8318C5.21476 17.9447 5.59285 18.0016 5.973 18.0005C6.31186 18.0048 6.6495 17.9591 6.975 17.8648L11.325 16.6648C11.7225 16.557 12.142 16.5604 12.5377 16.6745L14.295 17.1815C14.7362 17.2882 15.1958 17.2934 15.6392 17.1967C16.0827 17.1 16.4984 16.9039 16.8551 16.6232C17.2118 16.3426 17.5002 15.9846 17.6985 15.5764C17.8968 15.1681 17.9999 14.7202 18 14.2663V4.40756C17.9989 3.63419 17.7591 2.88001 17.3135 2.24794C16.8679 1.61587 16.238 1.13669 15.51 0.875818ZM3.132 15.7198C2.66273 15.5841 2.25007 15.3 1.95585 14.91C1.66163 14.5201 1.50169 14.0453 1.5 13.5568V4.50056C1.49636 4.12907 1.58622 3.76263 1.76132 3.43498C1.93642 3.10732 2.19113 2.82898 2.502 2.62557C2.8719 2.3802 3.30612 2.24973 3.75 2.25057C4.03625 2.25064 4.31966 2.30723 4.584 2.41707C4.584 2.41707 5.14275 2.65632 5.24925 2.69457V16.382L3.132 15.7198ZM6.75 16.3708V2.90982C7.00474 2.8963 7.2575 2.85735 7.5045 2.79357L11.25 1.70532V15.1506L6.75 16.3708ZM16.5 14.2663C16.5002 14.491 16.4499 14.7128 16.3528 14.9154C16.2558 15.118 16.1144 15.2962 15.9393 15.4369C15.7641 15.5776 15.5596 15.6771 15.3408 15.7281C15.122 15.7792 14.8946 15.7804 14.6752 15.7318L12.75 15.1896V1.55682L15.0135 2.29107C15.4485 2.44868 15.8245 2.73632 16.0904 3.11496C16.3564 3.49359 16.4994 3.94488 16.5 4.40756V14.2663Z" fill="#84849A"/>
</svg>
