<svg width="14" height="7" viewBox="0 0 14 7" fill="none" xmlns="http://www.w3.org/2000/svg">
<path d="M12.8843 0.544134C12.7683 0.427976 12.6304 0.33583 12.4787 0.272962C12.327 0.210093 12.1644 0.177734 12.0002 0.177734C11.836 0.177734 11.6733 0.210093 11.5216 0.272962C11.3699 0.33583 11.2321 0.427976 11.116 0.544134L7.29434 4.36497C7.2162 4.44308 7.11024 4.48696 6.99976 4.48696C6.88927 4.48696 6.78331 4.44308 6.70517 4.36497L2.88434 0.544134C2.64996 0.309639 2.33202 0.177856 2.00047 0.177778C1.66892 0.1777 1.35092 0.309332 1.11642 0.543717C0.881929 0.778102 0.750147 1.09604 0.750069 1.42759C0.749991 1.75914 0.881623 2.07714 1.11601 2.31163L4.93767 6.1333C5.20852 6.40417 5.53006 6.61904 5.88395 6.76563C6.23783 6.91223 6.61713 6.98768 7.00017 6.98768C7.38322 6.98768 7.76252 6.91223 8.1164 6.76563C8.47029 6.61904 8.79183 6.40417 9.06267 6.1333L12.8843 2.31163C13.1187 2.07722 13.2503 1.75934 13.2503 1.42788C13.2503 1.09643 13.1187 0.778544 12.8843 0.544134Z" fill="#979AB8"/>
</svg>
