<svg width="56" height="27" viewBox="0 0 56 27" fill="none" xmlns="http://www.w3.org/2000/svg">
<g clip-path="url(#clip0_2017_37468)">
<path d="M26.46 13.7892V20.2992H24.36V4.19922H29.82C31.15 4.19922 32.41 4.68922 33.39 5.59922C34.37 6.43922 34.86 7.69922 34.86 9.02922C34.86 10.3592 34.37 11.5492 33.39 12.4592C32.41 13.3692 31.22 13.8592 29.82 13.8592L26.46 13.7892ZM26.46 6.15922V11.7592H29.96C30.73 11.7592 31.5 11.4792 31.99 10.9192C33.11 9.86922 33.11 8.11922 32.06 7.06922L31.99 6.99922C31.43 6.43922 30.73 6.08922 29.96 6.15922H26.46Z" fill="white"/>
<path d="M39.69 8.95898C41.23 8.95898 42.42 9.37898 43.33 10.219C44.24 11.059 44.66 12.179 44.66 13.579V20.299H42.7V18.759H42.63C41.79 20.019 40.6 20.649 39.2 20.649C38.01 20.649 36.96 20.299 36.12 19.599C35.35 18.899 34.86 17.919 34.86 16.869C34.86 15.749 35.28 14.839 36.12 14.139C36.96 13.439 38.15 13.159 39.55 13.159C40.81 13.159 41.79 13.369 42.56 13.859V13.369C42.56 12.669 42.28 11.969 41.72 11.549C41.16 11.059 40.46 10.779 39.69 10.779C38.5 10.779 37.59 11.269 36.96 12.249L35.14 11.129C36.26 9.65898 37.73 8.95898 39.69 8.95898ZM37.03 16.939C37.03 17.499 37.31 17.989 37.73 18.269C38.22 18.619 38.78 18.829 39.34 18.829C40.18 18.829 41.02 18.479 41.65 17.849C42.35 17.219 42.7 16.449 42.7 15.609C42.07 15.119 41.16 14.839 39.97 14.839C39.13 14.839 38.43 15.049 37.87 15.469C37.31 15.819 37.03 16.309 37.03 16.939Z" fill="white"/>
<path d="M56 9.31055L49.07 25.2005H46.97L49.56 19.6705L45.01 9.38055H47.25L50.54 17.2905H50.61L53.83 9.38055H56V9.31055Z" fill="white"/>
<path d="M18.13 12.39C18.13 11.76 18.06 11.13 17.99 10.5H9.24001V14.07H14.21C14 15.19 13.37 16.24 12.39 16.87V19.18H15.4C17.15 17.57 18.13 15.19 18.13 12.39Z" fill="#4285F4"/>
<path d="M9.24002 21.4197C11.76 21.4197 13.86 20.5797 15.4 19.1797L12.39 16.8697C11.55 17.4297 10.5 17.7797 9.24002 17.7797C6.86002 17.7797 4.76002 16.1697 4.06002 13.9297H0.980019V16.3097C2.59002 19.4597 5.74002 21.4197 9.24002 21.4197Z" fill="#34A853"/>
<path d="M4.05998 13.9305C3.63998 12.8105 3.63998 11.5505 4.05998 10.3605V7.98047H0.979983C-0.350017 10.5705 -0.350017 13.6505 0.979983 16.3105L4.05998 13.9305Z" fill="#FBBC04"/>
<path d="M9.24 6.57931C10.57 6.57931 11.83 7.06931 12.81 7.97931L15.47 5.31931C13.79 3.77931 11.55 2.86931 9.31 2.93931C5.81 2.93931 2.59 4.89931 1.05 8.04931L4.13 10.4293C4.76 8.18931 6.86 6.57931 9.24 6.57931Z" fill="#EA4335"/>
</g>
<defs>
<clipPath id="clip0_2017_37468">
<rect width="56" height="26.67" fill="white"/>
</clipPath>
</defs>
</svg>
