<svg width="18" height="18" viewBox="0 0 18 18" fill="none" xmlns="http://www.w3.org/2000/svg">
<path d="M9.00016 0.00585938C7.51625 0.00602687 6.06573 0.446387 4.83218 1.27121C3.59862 2.09604 2.63747 3.26825 2.07035 4.63952C1.50323 6.01079 1.35563 7.51947 1.64624 8.97466C1.93685 10.4298 2.6526 11.7661 3.70291 12.8144L9.00016 17.9954L14.3034 12.8084C15.352 11.7594 16.0661 10.4231 16.3553 8.96841C16.6446 7.5137 16.496 6.00588 15.9284 4.6356C15.3607 3.26532 14.3996 2.09411 13.1664 1.27003C11.9332 0.44596 10.4834 0.00602778 9.00016 0.00585938ZM13.2489 11.7419L9.00016 15.9006L4.75741 11.7479C3.91859 10.909 3.34726 9.84028 3.11564 8.6768C2.88402 7.51331 3.0025 6.30728 3.45611 5.21112C3.90972 4.11495 4.6781 3.17786 5.66414 2.51826C6.65018 1.85866 7.80962 1.50617 8.99593 1.50533C10.1822 1.5045 11.3422 1.85535 12.3291 2.51355C13.3161 3.17175 14.0858 4.10776 14.541 5.20328C14.9961 6.29881 15.1163 7.50467 14.8863 8.66848C14.6564 9.83229 14.0866 10.9018 13.2489 11.7419ZM12.0137 5.56786L10.1387 4.13536C9.81143 3.88651 9.41165 3.75178 9.00054 3.75178C8.58943 3.75178 8.18965 3.88651 7.86241 4.13536L5.98741 5.56786C5.75885 5.74327 5.57355 5.96875 5.44575 6.22696C5.31794 6.48517 5.25103 6.76925 5.25016 7.05736V10.5006H12.7502V7.05736C12.7493 6.76933 12.6824 6.48533 12.5548 6.22714C12.4271 5.96895 12.242 5.74342 12.0137 5.56786ZM11.2502 9.00061H9.75016V7.50061H8.25016V9.00061H6.75016V7.05736C6.75016 6.99914 6.76372 6.94173 6.78975 6.88965C6.81579 6.83758 6.85359 6.79229 6.90016 6.75736L8.77516 5.32561C8.84061 5.27549 8.92074 5.24834 9.00316 5.24834C9.08559 5.24834 9.16572 5.27549 9.23116 5.32561L11.1062 6.75811C11.1527 6.79304 11.1905 6.83833 11.2166 6.8904C11.2426 6.94247 11.2562 6.99989 11.2562 7.05811L11.2502 9.00061Z" fill="#84849A"/>
</svg>
