<svg width="18" height="18" viewBox="0 0 18 18" fill="none" xmlns="http://www.w3.org/2000/svg">
<g clip-path="url(#clip0_2103_37086)">
<path d="M6.13098 16.8361C7.70795 18.3788 10.2266 18.3851 11.8113 16.8503L14.7976 14.0906C18.0327 10.8986 18.0677 5.68833 14.8756 2.45325C11.6836 -0.781826 6.47337 -0.816771 3.23829 2.37528C3.21214 2.40108 3.18612 2.4271 3.16032 2.45325C-0.0530697 5.66713 -0.0526478 10.8775 3.16123 14.0909C3.16788 14.0975 3.17456 14.1041 3.18124 14.1108L6.13098 16.8361ZM4.2181 3.51107C6.84167 0.875932 11.1047 0.866545 13.7398 3.49012C16.375 6.11369 16.3843 10.3767 13.7608 13.0118L10.7804 15.7663C9.76238 16.7244 8.17268 16.7185 7.16184 15.7529L4.2181 13.0328C1.58876 10.4035 1.58873 6.14048 4.21803 3.5111C4.21806 3.5111 4.2181 3.51107 4.2181 3.51107ZM5.23851 8.27193C5.23851 7.85877 5.57344 7.52384 5.9866 7.52384H8.23087V5.27957C8.23087 4.86641 8.5658 4.53148 8.97896 4.53148C9.39211 4.53148 9.72705 4.86641 9.72705 5.27957V7.52384H11.9713C12.3845 7.52384 12.7194 7.85877 12.7194 8.27193C12.7194 8.68508 12.3845 9.02002 11.9713 9.02002H9.72705V11.2643C9.72705 11.6774 9.39211 12.0124 8.97896 12.0124C8.5658 12.0124 8.23087 11.6774 8.23087 11.2643V9.02002H5.9866C5.57344 9.02002 5.23851 8.68508 5.23851 8.27193Z" fill="#84849A"/>
</g>
<defs>
<clipPath id="clip0_2103_37086">
<rect width="18" height="18" fill="white"/>
</clipPath>
</defs>
</svg>
