<svg width="18" height="18" viewBox="0 0 18 18" fill="none" xmlns="http://www.w3.org/2000/svg">
<g clip-path="url(#clip0_2012_37145)">
<path d="M9.74992 0.749245C9.74992 0.550332 9.82893 0.359567 9.96959 0.218915C10.1102 0.0782622 10.301 -0.000755399 10.4999 -0.000755399C12.4884 0.0014283 14.3947 0.792306 15.8008 2.19836C17.2068 3.60441 17.9977 5.51079 17.9999 7.49925C17.9999 7.69816 17.9209 7.88892 17.7802 8.02958C17.6396 8.17023 17.4488 8.24925 17.2499 8.24925C17.051 8.24925 16.8602 8.17023 16.7196 8.02958C16.5789 7.88892 16.4999 7.69816 16.4999 7.49925C16.4981 5.90849 15.8654 4.38341 14.7406 3.25858C13.6157 2.13375 12.0907 1.50103 10.4999 1.49924C10.301 1.49924 10.1102 1.42023 9.96959 1.27957C9.82893 1.13892 9.74992 0.948157 9.74992 0.749245ZM10.4999 4.49925C11.2956 4.49925 12.0586 4.81532 12.6212 5.37792C13.1838 5.94053 13.4999 6.7036 13.4999 7.49925C13.4999 7.69816 13.5789 7.88892 13.7196 8.02958C13.8602 8.17023 14.051 8.24925 14.2499 8.24925C14.4488 8.24925 14.6396 8.17023 14.7802 8.02958C14.9209 7.88892 14.9999 7.69816 14.9999 7.49925C14.9987 6.30614 14.5242 5.16224 13.6806 4.31858C12.8369 3.47492 11.693 3.00044 10.4999 2.99924C10.301 2.99924 10.1102 3.07826 9.96959 3.21891C9.82893 3.35957 9.74992 3.55033 9.74992 3.74924C9.74992 3.94816 9.82893 4.13892 9.96959 4.27957C10.1102 4.42023 10.301 4.49925 10.4999 4.49925ZM17.3197 12.5535C17.7543 12.9893 17.9984 13.5797 17.9984 14.1952C17.9984 14.8108 17.7543 15.4012 17.3197 15.837L16.6372 16.6237C10.4947 22.5045 -4.45282 7.56074 1.33718 1.39874L2.19968 0.648745C2.636 0.226253 3.22112 -0.00746859 3.82845 -0.00185427C4.43578 0.00376005 5.01648 0.248258 5.44492 0.678745C5.46817 0.701995 6.85792 2.50724 6.85792 2.50724C7.27029 2.94047 7.49985 3.51594 7.49887 4.11405C7.49789 4.71215 7.26646 5.28687 6.85267 5.71874L5.98417 6.81075C6.46481 7.97858 7.17147 9.03993 8.06355 9.93382C8.95563 10.8277 10.0156 11.5365 11.1824 12.0195L12.2812 11.1457C12.7131 10.7323 13.2877 10.5011 13.8856 10.5003C14.4836 10.4994 15.0588 10.729 15.4919 11.1412C15.4919 11.1412 17.2964 12.5302 17.3197 12.5535ZM16.2877 13.644C16.2877 13.644 14.4929 12.2632 14.4697 12.24C14.3151 12.0868 14.1064 12.0008 13.8888 12.0008C13.6712 12.0008 13.4624 12.0868 13.3079 12.24C13.2877 12.261 11.7749 13.4662 11.7749 13.4662C11.673 13.5474 11.5517 13.6006 11.4229 13.6206C11.2941 13.6406 11.1624 13.6267 11.0407 13.5802C9.52901 13.0174 8.15597 12.1363 7.01455 10.9966C5.87312 9.85681 4.98997 8.48507 4.42492 6.97425C4.37482 6.85084 4.35849 6.71631 4.3776 6.5845C4.39671 6.45269 4.45058 6.32834 4.53367 6.22425C4.53367 6.22425 5.73892 4.71074 5.75917 4.69125C5.91237 4.53673 5.99833 4.32796 5.99833 4.11037C5.99833 3.89278 5.91237 3.68401 5.75917 3.52949C5.73592 3.50699 4.35517 1.71074 4.35517 1.71074C4.19835 1.57013 3.99368 1.49482 3.78311 1.50025C3.57254 1.50569 3.37203 1.59147 3.22267 1.73999L2.36018 2.48999C-1.87132 7.578 11.0819 19.8127 15.5407 15.5992L16.2239 14.8117C16.384 14.6634 16.4802 14.4587 16.4921 14.2408C16.504 14.0229 16.4307 13.8088 16.2877 13.644Z" fill="#84849A"/>
</g>
<defs>
<clipPath id="clip0_2012_37145">
<rect width="18" height="18" fill="white"/>
</clipPath>
</defs>
</svg>
