<svg width="86" height="21" viewBox="0 0 86 21" fill="none" xmlns="http://www.w3.org/2000/svg">
<path d="M21.9204 6.46424C21.2342 5.02463 19.9332 4.09471 17.9727 4.09471C17.371 4.10519 16.7797 4.25378 16.2445 4.52893C15.7093 4.80411 15.2443 5.19856 14.8857 5.68183L14.8141 5.769V0.126854C14.8141 0.0942464 14.8012 0.0629761 14.7781 0.0399194C14.7551 0.0168621 14.7238 0.00390625 14.6912 0.00390625H11.9193C11.8871 0.00449216 11.8564 0.017703 11.8338 0.0406968C11.8112 0.0636906 11.7986 0.0946301 11.7986 0.126854V16.3112C11.7986 16.3432 11.8113 16.3739 11.8339 16.3965C11.8566 16.4192 11.8872 16.4319 11.9193 16.4319H14.8879C14.9201 16.4319 14.9511 16.4193 14.9741 16.3967C14.997 16.3741 15.0103 16.3434 15.0108 16.3112V9.4105C15.0108 8.06926 15.905 7.1192 17.3357 7.1192C18.9005 7.1192 19.2961 8.4068 19.2961 9.71896V16.3112C19.2961 16.3432 19.3088 16.3739 19.3315 16.3965C19.3541 16.4192 19.3848 16.4319 19.4168 16.4319H22.3787C22.411 16.4319 22.4419 16.4193 22.4649 16.3967C22.4879 16.3741 22.5012 16.3434 22.5018 16.3112V9.32555C22.5018 9.08636 22.5018 8.85163 22.4704 8.62364C22.4195 7.87645 22.2332 7.14473 21.9204 6.46424Z" fill="white"/>
<path d="M7.0975 8.86285C7.0975 8.86285 5.58636 8.50742 5.02975 8.36436C4.47312 8.22129 3.50071 7.91727 3.50071 7.18182C3.50071 6.44637 4.28534 6.21164 5.08116 6.21164C5.87697 6.21164 6.7622 6.40389 6.83149 7.28689C6.83429 7.31872 6.84893 7.34829 6.87252 7.36985C6.89612 7.39138 6.92695 7.40323 6.9589 7.40313L9.88504 7.39195C9.90226 7.39199 9.91931 7.38848 9.93511 7.38165C9.9509 7.37481 9.96511 7.36478 9.97687 7.35217C9.98862 7.33961 9.99766 7.32472 10.0034 7.30849C10.0091 7.29224 10.0115 7.27499 10.0102 7.25781C9.82917 4.43227 7.35009 3.42188 5.06327 3.42188C2.35171 3.42188 0.368919 5.2102 0.368919 7.18182C0.368919 8.62142 0.775763 9.97162 3.97462 10.9105C4.53571 11.0737 5.298 11.286 5.96416 11.4716C6.76442 11.6951 7.19585 12.0327 7.19585 12.5647C7.19585 13.1817 6.30169 13.6108 5.42318 13.6108C4.15124 13.6108 3.24813 13.1392 3.17435 12.2919C3.17051 12.261 3.15543 12.2324 3.13192 12.2118C3.10843 12.1912 3.07819 12.1799 3.04693 12.1802L0.127495 12.1936C0.110379 12.1936 0.0934391 12.197 0.0776812 12.2037C0.0619235 12.2104 0.0476733 12.2202 0.0357809 12.2325C0.0238888 12.2448 0.0145966 12.2594 0.00846262 12.2753C0.00232868 12.2913 -0.000522068 12.3084 7.84871e-05 12.3255C0.134203 14.9923 2.70939 16.4297 5.11024 16.4297C8.68689 16.4297 10.3031 14.4178 10.3031 12.5334C10.3075 11.6482 10.1041 9.63182 7.0975 8.86285Z" fill="white"/>
<path d="M44.7417 4.09038C43.2553 4.09038 42.01 4.913 41.2075 5.90556V4.20662C41.2075 4.17499 41.195 4.14461 41.1728 4.12205C41.151 4.09947 41.1207 4.08649 41.089 4.08594H38.3128C38.2809 4.08594 38.2499 4.09862 38.2273 4.12126C38.2047 4.14391 38.1919 4.17463 38.1919 4.20662V20.078C38.1927 20.1095 38.2057 20.1399 38.2283 20.1619C38.2509 20.1841 38.2813 20.1965 38.3128 20.1965H41.2836C41.3149 20.1965 41.3451 20.1841 41.3673 20.1619C41.3895 20.1397 41.402 20.1093 41.402 20.078V14.8606H41.4467C41.9183 15.5803 43.2082 16.4432 44.8939 16.4432C48.0633 16.4432 50.7058 13.8144 50.7058 10.2623C50.7082 6.85336 48.0792 4.09038 44.7417 4.09038ZM44.4668 13.4187C43.8412 13.4343 43.2246 13.263 42.6968 12.9268C42.169 12.5906 41.753 12.1047 41.5022 11.5311C41.2517 10.9575 41.1776 10.3223 41.2898 9.70641C41.4016 9.09055 41.6947 8.52205 42.1311 8.07346C42.5678 7.62481 43.1281 7.31644 43.7407 7.18769C44.3532 7.05894 44.9902 7.1156 45.5704 7.35049C46.1507 7.58536 46.6476 7.98781 46.9982 8.50645C47.3486 9.02511 47.5365 9.63639 47.5383 10.2623C47.5447 10.6715 47.4701 11.0779 47.3193 11.4583C47.1685 11.8386 46.9437 12.1854 46.6583 12.4787C46.3731 12.772 46.0326 13.006 45.6562 13.1673C45.2802 13.3286 44.876 13.4141 44.4668 13.4187Z" fill="white"/>
<path d="M29.4002 3.39258C26.6305 3.39258 25.249 4.33368 24.1401 5.08703L24.1066 5.10937C24.0495 5.14849 24.0093 5.2078 23.9938 5.27534C23.9785 5.34291 23.9893 5.41375 24.0239 5.47375L25.1192 7.3604C25.1398 7.39572 25.168 7.42606 25.2015 7.44923C25.2352 7.47242 25.2734 7.4879 25.3138 7.49454C25.3533 7.50166 25.3937 7.49993 25.4324 7.48949C25.471 7.47904 25.5069 7.46019 25.5374 7.43417L25.6244 7.36266C26.1945 6.88427 27.1088 6.24493 29.3219 6.07057C30.5535 5.97224 31.6177 6.29413 32.4022 7.02734C33.2651 7.82316 33.7817 9.10851 33.7817 10.4654C33.7817 12.9624 32.3106 14.5316 29.9478 14.5629C28.0007 14.5517 26.6929 13.5368 26.6929 12.0369C26.6929 11.2411 27.0529 10.7225 27.7549 10.2039C27.8084 10.1655 27.8463 10.1091 27.8615 10.045C27.8768 9.98089 27.8683 9.91344 27.8376 9.85513L26.8539 7.99526C26.8358 7.96198 26.8113 7.93261 26.7817 7.90882C26.7522 7.88504 26.7183 7.86732 26.6818 7.85668C26.6446 7.8456 26.6055 7.84247 26.5671 7.84744C26.5284 7.85246 26.4914 7.8655 26.4583 7.88575C25.3541 8.54071 23.9994 9.73889 24.0731 12.0414C24.1625 14.972 26.5992 17.2096 29.7667 17.3013H29.9254H30.1423C33.9065 17.1783 36.6249 14.3841 36.6249 10.5951C36.6249 7.11675 34.0899 3.39258 29.4002 3.39258Z" fill="white"/>
<path d="M62.4126 5.18164H60.5257C60.4817 5.18222 60.4393 5.20007 60.408 5.23137C60.3765 5.26269 60.3587 5.305 60.3585 5.3493V9.30818C60.3587 9.35228 60.3767 9.39432 60.4082 9.42528C60.4395 9.45624 60.4817 9.47362 60.5257 9.47362H62.4126C63.5616 9.47362 64.4089 8.56827 64.4089 7.32762C64.4089 6.08697 63.5616 5.18164 62.4126 5.18164Z" fill="white"/>
<path d="M68.2091 12.1839C68.2091 12.7584 68.6941 13.078 69.539 13.078C70.688 13.078 71.3674 12.4566 71.3674 11.3545V11.0371L69.6464 11.1265C68.7387 11.1712 68.2091 11.549 68.2091 12.1839Z" fill="white"/>
<path d="M82.1802 0.0390823H56.8307C56.415 0.0390819 56.003 0.121031 55.619 0.280243C55.2347 0.439455 54.8857 0.672813 54.592 0.966977C54.2978 1.26114 54.0647 1.61035 53.9058 1.99465C53.7466 2.37895 53.6652 2.79079 53.6656 3.20666V17.084C53.6656 17.9237 53.9989 18.7291 54.5925 19.3231C55.1862 19.917 55.9913 20.251 56.8307 20.2516H82.1802C82.5966 20.2528 83.0093 20.1719 83.3944 20.0136C83.7793 19.8552 84.1293 19.6224 84.4244 19.3286C84.7192 19.0348 84.9536 18.6858 85.1138 18.3014C85.2737 17.917 85.3562 17.5049 85.357 17.0885V3.21112C85.3576 2.79394 85.2761 2.38069 85.1168 1.99515C84.9574 1.60961 84.7233 1.25938 84.4282 0.964589C84.1331 0.669804 83.7825 0.436282 83.3967 0.27745C83.011 0.118617 82.5976 0.037608 82.1802 0.0390823ZM62.5086 11.0306H60.5146C60.4702 11.0306 60.4278 11.0482 60.3961 11.0797C60.3648 11.1111 60.347 11.1538 60.347 11.1983V14.0372C60.347 14.0816 60.3293 14.1243 60.298 14.1557C60.2665 14.1872 60.2239 14.2048 60.1795 14.2048H58.7754C58.7314 14.2043 58.6888 14.1864 58.6575 14.1551C58.6262 14.1238 58.6087 14.0815 58.6079 14.0372V3.79679C58.6079 3.75235 58.6256 3.7097 58.6573 3.67825C58.6886 3.64681 58.731 3.62915 58.7754 3.62915H62.5086C64.6234 3.62915 66.1367 5.16934 66.1367 7.33098C66.1367 9.49262 64.6345 11.035 62.5201 11.035L62.5086 11.0306ZM73.0151 14.035C73.0155 14.0572 73.0115 14.0792 73.003 14.0998C72.9947 14.1204 72.9824 14.1392 72.9669 14.155C72.9511 14.1708 72.9326 14.1833 72.912 14.1919C72.8918 14.2004 72.8696 14.2048 72.8474 14.2048H71.5218C71.4996 14.2048 71.4776 14.2004 71.4572 14.1919C71.4366 14.1833 71.418 14.1708 71.4025 14.155C71.3871 14.1392 71.3746 14.1204 71.3664 14.0998C71.3581 14.0792 71.354 14.0572 71.3544 14.035V13.7287C71.3563 13.7018 71.35 13.675 71.3355 13.6521C71.3215 13.6292 71.3002 13.6116 71.2749 13.6018C71.2499 13.592 71.2224 13.5906 71.1964 13.5978C71.17 13.6049 71.1472 13.6202 71.1308 13.6415C70.735 14.073 70.0912 14.3859 69.0651 14.3859C67.5542 14.3859 66.5547 13.5991 66.5547 12.2399C66.5402 11.9085 66.6086 11.5787 66.7539 11.2805C66.899 10.9823 67.1166 10.725 67.3865 10.5321C67.9318 10.123 68.7767 9.91065 70.0308 9.86145L71.3607 9.81676V9.42777C71.3607 8.64314 70.8333 8.31008 69.986 8.31008C69.1388 8.31008 68.6045 8.60963 68.4796 9.09919C68.4695 9.13375 68.4483 9.164 68.419 9.18507C68.39 9.20616 68.3546 9.21682 68.3185 9.21541H67.0064C66.9822 9.21603 66.9582 9.21131 66.936 9.20168C66.9142 9.19201 66.8942 9.17762 66.8781 9.1595C66.8623 9.14136 66.8504 9.12002 66.8437 9.09683C66.8367 9.07366 66.8349 9.0493 66.8387 9.02542C67.0355 7.863 67.9966 6.98 70.0466 6.98C72.2239 6.98 73.0084 7.99266 73.0084 9.92627L73.0151 14.035ZM81.2728 7.39131L78.3222 15.2622C77.6515 17.0907 76.4777 17.5602 75.1924 17.5602C74.9503 17.5661 74.7085 17.5367 74.4749 17.473C74.4384 17.4632 74.4065 17.4417 74.3831 17.4118C74.3603 17.3819 74.3478 17.3453 74.3474 17.3076V16.1116C74.3474 16.0866 74.3528 16.0619 74.3633 16.0392C74.374 16.0165 74.3892 15.9965 74.4085 15.9805C74.4279 15.9644 74.4503 15.9529 74.4745 15.9466C74.4986 15.9403 74.524 15.9394 74.5486 15.944C74.7513 15.9824 74.9571 16.0019 75.1634 16.0021C75.5188 16.0199 75.87 15.918 76.1608 15.7125C76.4511 15.507 76.6644 15.2099 76.7661 14.8688L76.8535 14.5938C76.867 14.557 76.867 14.5166 76.8535 14.4798L74.0947 7.39357C74.0864 7.36824 74.084 7.34125 74.088 7.31485C74.0921 7.28843 74.1022 7.26331 74.1173 7.24155C74.133 7.21979 74.1534 7.20197 74.177 7.18952C74.2005 7.1771 74.2269 7.1704 74.2535 7.17002H75.5949C75.6292 7.17036 75.6625 7.18094 75.6908 7.20048C75.7192 7.21999 75.741 7.24754 75.7535 7.27957L77.6269 12.2779C77.6394 12.3106 77.6612 12.3387 77.6899 12.3586C77.7188 12.3784 77.7527 12.389 77.7878 12.389C77.8225 12.389 77.857 12.3784 77.8855 12.3586C77.9143 12.3387 77.9365 12.3106 77.9486 12.2779L79.574 7.29299C79.5847 7.25899 79.6063 7.22938 79.6353 7.20847C79.6642 7.18754 79.6989 7.17642 79.7346 7.17674H81.1097C81.1361 7.17662 81.1622 7.18281 81.1862 7.19466C81.2098 7.20655 81.2306 7.22383 81.2465 7.24514C81.2623 7.26645 81.2728 7.29116 81.2774 7.31734C81.2821 7.34349 81.2805 7.37036 81.2728 7.39579V7.39131Z" fill="white"/>
</svg>
