<svg width="60" height="60" viewBox="0 0 60 60" fill="none" xmlns="http://www.w3.org/2000/svg">
<g clip-path="url(#clip0_2018_36973)">
<path d="M12.89 14.7656C12.2432 14.7656 11.7182 15.2906 11.7182 15.9375C11.7182 16.5844 12.2432 17.1094 12.89 17.1094C13.5369 17.1094 14.0619 16.5844 14.0619 15.9375C14.0619 15.2906 13.5369 14.7656 12.89 14.7656Z" fill="#000034"/>
<path d="M55.1865 24.7877L53.4909 21.3964C52.8914 20.1974 51.6866 19.4527 50.3464 19.4527H40.5452V11.2499C40.5452 9.31148 38.9682 7.73438 37.0297 7.73438H3.51551C1.57699 7.73437 0 9.31137 0 11.2499V41.7173C0 43.6557 1.57699 45.2328 3.51551 45.2328H7.03102C7.03102 47.0321 7.71129 48.6752 8.82703 49.9201H1.17187C0.524648 49.9201 0 50.4449 0 51.092C0 51.7391 0.524648 52.2639 1.17187 52.2639H58.8258C59.473 52.2639 59.9977 51.7391 59.9977 51.092C59.9977 50.4449 59.473 49.9201 58.8258 49.9201H55.8579C56.9737 48.6751 57.6539 47.0321 57.6539 45.2328C57.6539 45.1661 57.6507 45.0996 57.6489 45.0329C59.0154 44.5506 59.9975 43.2469 59.9975 41.7173V35.2395C59.9975 33.872 60.2684 35.1486 55.1865 24.7877ZM53.4142 26.4836L56.9297 33.5146H45.2325V26.4836H53.4142ZM2.34363 35.8582H4.68727V38.2018H2.34363V35.8582ZM14.0619 49.9201C11.4773 49.9201 9.37465 47.8173 9.37465 45.2328C9.37465 44.9136 9.40629 44.5995 9.46957 44.2939C9.91031 42.122 11.8417 40.5455 14.0619 40.5455C16.2821 40.5455 18.2136 42.1219 18.6543 44.2939C18.6546 44.2957 18.655 44.2972 18.6553 44.2989C18.7177 44.5993 18.7492 44.9136 18.7492 45.2328C18.7492 47.8174 16.6465 49.9201 14.0619 49.9201ZM14.0619 38.2018C11.0595 38.2018 8.40973 40.1252 7.43285 42.8891H3.51551C2.86934 42.8891 2.34363 42.3634 2.34363 41.7172V40.5453H5.85914C6.50637 40.5453 7.03102 40.0206 7.03102 39.3735V34.6862C7.03102 34.0391 6.50637 33.5143 5.85914 33.5143H2.34363V11.2499C2.34363 10.6037 2.86934 10.078 3.51551 10.078H37.0297C37.6759 10.078 38.2016 10.6037 38.2016 11.2499C38.2016 12.1216 38.2016 40.0789 38.2016 42.8892H20.6904C19.7118 40.1238 17.0631 38.2018 14.0619 38.2018ZM19.2968 49.9201C20.4127 48.6751 21.0928 47.0321 21.0928 45.2328C21.9926 45.2328 43.2088 45.2328 43.5919 45.2328C43.5919 47.0321 44.2721 48.6752 45.3879 49.9201H19.2968ZM50.6229 49.9201C48.0383 49.9201 45.9356 47.8173 45.9356 45.2328C45.9356 44.9136 45.9673 44.5995 46.0305 44.2939C46.4713 42.122 48.4027 40.5455 50.6229 40.5455C52.8431 40.5455 54.7746 42.1219 55.2152 44.2939C55.2156 44.2957 55.2159 44.2972 55.2163 44.2989C55.2786 44.5993 55.3102 44.9136 55.3102 45.2328C55.3103 47.8174 53.2075 49.9201 50.6229 49.9201ZM57.6539 41.7173C57.6539 42.1071 57.4618 42.452 57.1683 42.6653C56.1287 40.0205 53.5424 38.202 50.6229 38.202C47.6204 38.202 44.9707 40.1254 43.9938 42.8892H40.5451V21.7963H50.3463C50.793 21.7963 51.1946 22.0447 51.3946 22.4445L52.2423 24.1399H44.0607C43.4135 24.1399 42.8889 24.6647 42.8889 25.3118V34.6864C42.8889 35.3336 43.4135 35.8583 44.0607 35.8583H57.6539V41.7173Z" fill="#000034"/>
<path d="M32.3425 14.7656H17.5774C16.9302 14.7656 16.4055 15.2904 16.4055 15.9375C16.4055 16.5846 16.9302 17.1094 17.5774 17.1094H32.3425C32.9897 17.1094 33.5143 16.5846 33.5143 15.9375C33.5143 15.2904 32.9896 14.7656 32.3425 14.7656Z" fill="#000034"/>
<path d="M32.3425 19.4531H22.2647C21.6175 19.4531 21.0928 19.9779 21.0928 20.625C21.0928 21.2721 21.6175 21.7969 22.2647 21.7969H32.3425C32.9897 21.7969 33.5143 21.2721 33.5143 20.625C33.5143 19.9779 32.9896 19.4531 32.3425 19.4531Z" fill="#000034"/>
<path d="M50.6229 42.8906C49.3306 42.8906 48.2793 43.942 48.2793 45.2343C48.2793 46.5266 49.3307 47.5779 50.6229 47.5779C51.9152 47.5779 52.9665 46.5265 52.9665 45.2343C52.9665 43.9419 51.9152 42.8906 50.6229 42.8906Z" fill="#000034"/>
<path d="M14.0619 42.8906C12.7696 42.8906 11.7183 43.942 11.7183 45.2343C11.7183 46.5266 12.7697 47.5779 14.0619 47.5779C15.3543 47.5779 16.4055 46.5265 16.4055 45.2343C16.4055 43.9419 15.3543 42.8906 14.0619 42.8906Z" fill="#000034"/>
</g>
<defs>
<clipPath id="clip0_2018_36973">
<rect width="60" height="60" fill="white"/>
</clipPath>
</defs>
</svg>
